<mxfile host="app.diagrams.net" modified="2024-04-23T01:03:11.361Z" agent="Mozilla/5.0 (Windows NT 10.0; Win64; x64) AppleWebKit/537.36 (KHTML, like Gecko) Chrome/124.0.0.0 Safari/537.36" etag="5naHhMW4Dpg-cOtW3n2M" version="23.1.2" type="github">
  <diagram name="Page-1" id="mZjt0X6kwLZ7YW-d5nfS">
    <mxGraphModel dx="2537" dy="2204" grid="1" gridSize="10" guides="1" tooltips="1" connect="1" arrows="1" fold="1" page="1" pageScale="1" pageWidth="850" pageHeight="1100" math="0" shadow="0">
      <root>
        <mxCell id="0" />
        <mxCell id="1" parent="0" />
        <mxCell id="RchGukf3e6hllIF8ddFh-17" value="Local Network (10GBPS Ethernet)" style="rounded=0;whiteSpace=wrap;html=1;verticalAlign=top;align=right;" vertex="1" parent="1">
          <mxGeometry y="10" width="870" height="830" as="geometry" />
        </mxCell>
        <mxCell id="RchGukf3e6hllIF8ddFh-14" value="" style="ellipse;shape=cloud;whiteSpace=wrap;html=1;" vertex="1" parent="1">
          <mxGeometry x="-760" y="-50" width="720" height="250" as="geometry" />
        </mxCell>
        <mxCell id="RchGukf3e6hllIF8ddFh-4" value="Ceph HDD Pool&lt;br&gt;&lt;br&gt;(2 16TB HDD)" style="shape=cylinder3;whiteSpace=wrap;html=1;boundedLbl=1;backgroundOutline=1;size=15;fillColor=#fff2cc;strokeColor=#d6b656;" vertex="1" parent="1">
          <mxGeometry x="210" y="700" width="120" height="110" as="geometry" />
        </mxCell>
        <mxCell id="RchGukf3e6hllIF8ddFh-5" value="Ceph SSD Pool&lt;br&gt;&lt;br&gt;(7x 1.8 TB SAS SSD)" style="shape=cylinder3;whiteSpace=wrap;html=1;boundedLbl=1;backgroundOutline=1;size=15;fillColor=#fff2cc;strokeColor=#d6b656;" vertex="1" parent="1">
          <mxGeometry x="515" y="700" width="120" height="110" as="geometry" />
        </mxCell>
        <mxCell id="RchGukf3e6hllIF8ddFh-7" value="" style="endArrow=none;html=1;rounded=0;exitX=0.475;exitY=1.036;exitDx=0;exitDy=0;exitPerimeter=0;entryX=0.5;entryY=0;entryDx=0;entryDy=0;entryPerimeter=0;" edge="1" parent="1" source="RchGukf3e6hllIF8ddFh-1" target="RchGukf3e6hllIF8ddFh-2">
          <mxGeometry width="50" height="50" relative="1" as="geometry">
            <mxPoint x="400" y="370" as="sourcePoint" />
            <mxPoint x="450" y="320" as="targetPoint" />
          </mxGeometry>
        </mxCell>
        <mxCell id="RchGukf3e6hllIF8ddFh-9" value="pfSense" style="rounded=0;whiteSpace=wrap;html=1;fillColor=#f8cecc;strokeColor=#b85450;" vertex="1" parent="1">
          <mxGeometry x="180" y="40" width="120" height="40" as="geometry" />
        </mxCell>
        <mxCell id="RchGukf3e6hllIF8ddFh-12" value="User" style="shape=umlActor;verticalLabelPosition=bottom;verticalAlign=top;html=1;outlineConnect=0;" vertex="1" parent="1">
          <mxGeometry x="-620" y="30" width="30" height="60" as="geometry" />
        </mxCell>
        <mxCell id="RchGukf3e6hllIF8ddFh-13" value="Kubernetes Cluster" style="rounded=0;whiteSpace=wrap;html=1;verticalAlign=top;align=right;fillColor=#d5e8d4;strokeColor=#82b366;" vertex="1" parent="1">
          <mxGeometry x="50" y="160" width="790" height="510" as="geometry" />
        </mxCell>
        <mxCell id="RchGukf3e6hllIF8ddFh-1" value="Archive-Ingester [Pod]" style="rounded=0;whiteSpace=wrap;html=1;verticalAlign=bottom;align=right;fillColor=#dae8fc;strokeColor=#6c8ebf;" vertex="1" parent="1">
          <mxGeometry x="210" y="420" width="120" height="50" as="geometry" />
        </mxCell>
        <mxCell id="RchGukf3e6hllIF8ddFh-2" value="15TB HDD" style="shape=cylinder3;whiteSpace=wrap;html=1;boundedLbl=1;backgroundOutline=1;size=15;fillColor=#fff2cc;strokeColor=#d6b656;" vertex="1" parent="1">
          <mxGeometry x="240" y="560" width="60" height="80" as="geometry" />
        </mxCell>
        <mxCell id="RchGukf3e6hllIF8ddFh-8" value="Oracle-Search [Pod]" style="rounded=0;whiteSpace=wrap;html=1;verticalAlign=bottom;align=right;fillColor=#ffe6cc;strokeColor=#d79b00;" vertex="1" parent="1">
          <mxGeometry x="362.5" y="300" width="240" height="60" as="geometry" />
        </mxCell>
        <mxCell id="RchGukf3e6hllIF8ddFh-19" value="" style="endArrow=none;html=1;rounded=0;entryX=0.5;entryY=0.5;entryDx=0;entryDy=0;entryPerimeter=0;exitX=0;exitY=0.5;exitDx=0;exitDy=0;" edge="1" parent="1" source="RchGukf3e6hllIF8ddFh-9" target="RchGukf3e6hllIF8ddFh-12">
          <mxGeometry width="50" height="50" relative="1" as="geometry">
            <mxPoint x="-60" y="310" as="sourcePoint" />
            <mxPoint x="-10" y="260" as="targetPoint" />
          </mxGeometry>
        </mxCell>
        <mxCell id="RchGukf3e6hllIF8ddFh-10" value="CloudFlare" style="rounded=0;whiteSpace=wrap;html=1;fillColor=#ffe6cc;strokeColor=#d79b00;" vertex="1" parent="1">
          <mxGeometry x="-300" y="30" width="120" height="60" as="geometry" />
        </mxCell>
        <mxCell id="RchGukf3e6hllIF8ddFh-11" value="search.redactedworks.net" style="rounded=0;whiteSpace=wrap;html=1;fillColor=#dae8fc;strokeColor=#6c8ebf;" vertex="1" parent="1">
          <mxGeometry x="-520" y="45" width="170" height="30" as="geometry" />
        </mxCell>
        <mxCell id="RchGukf3e6hllIF8ddFh-18" value="Fiber 3GBPS" style="rounded=0;whiteSpace=wrap;html=1;" vertex="1" parent="1">
          <mxGeometry x="-60" y="40" width="120" height="40" as="geometry" />
        </mxCell>
        <mxCell id="RchGukf3e6hllIF8ddFh-20" value="&amp;nbsp;search.redactedwork.net [TLS Ingress]" style="rounded=0;whiteSpace=wrap;html=1;fillColor=#ffe6cc;strokeColor=#d79b00;" vertex="1" parent="1">
          <mxGeometry x="330" y="190" width="305" height="30" as="geometry" />
        </mxCell>
        <mxCell id="RchGukf3e6hllIF8ddFh-21" value="(Private IP) LoadBalancer [MetalLB Service]" style="rounded=0;whiteSpace=wrap;html=1;fillColor=#e1d5e7;strokeColor=#9673a6;" vertex="1" parent="1">
          <mxGeometry x="330" y="160" width="305" height="30" as="geometry" />
        </mxCell>
        <mxCell id="RchGukf3e6hllIF8ddFh-22" value="Port 443 forwards to MetalLB private IP" style="endArrow=none;html=1;rounded=0;entryX=1;entryY=0.5;entryDx=0;entryDy=0;exitX=0.5;exitY=0;exitDx=0;exitDy=0;" edge="1" parent="1" source="RchGukf3e6hllIF8ddFh-21" target="RchGukf3e6hllIF8ddFh-9">
          <mxGeometry width="50" height="50" relative="1" as="geometry">
            <mxPoint x="440" y="310" as="sourcePoint" />
            <mxPoint x="490" y="260" as="targetPoint" />
            <Array as="points">
              <mxPoint x="483" y="60" />
            </Array>
          </mxGeometry>
        </mxCell>
        <mxCell id="RchGukf3e6hllIF8ddFh-23" value="Reverse proxy https://search.redactedwork.net/**" style="endArrow=none;html=1;rounded=0;entryX=0.5;entryY=1;entryDx=0;entryDy=0;exitX=0.5;exitY=0;exitDx=0;exitDy=0;" edge="1" parent="1" source="RchGukf3e6hllIF8ddFh-8" target="RchGukf3e6hllIF8ddFh-20">
          <mxGeometry width="50" height="50" relative="1" as="geometry">
            <mxPoint x="440" y="580" as="sourcePoint" />
            <mxPoint x="490" y="530" as="targetPoint" />
          </mxGeometry>
        </mxCell>
        <mxCell id="RchGukf3e6hllIF8ddFh-24" value="Reverse Proxy&lt;br&gt;https://search.redactedwork.net/archives/**&lt;br&gt;[Authenticated]" style="endArrow=none;html=1;rounded=0;exitX=0.5;exitY=0;exitDx=0;exitDy=0;entryX=0;entryY=0.5;entryDx=0;entryDy=0;" edge="1" parent="1" source="RchGukf3e6hllIF8ddFh-1" target="RchGukf3e6hllIF8ddFh-8">
          <mxGeometry x="-0.0137" y="-30" width="50" height="50" relative="1" as="geometry">
            <mxPoint x="440" y="310" as="sourcePoint" />
            <mxPoint x="490" y="260" as="targetPoint" />
            <Array as="points">
              <mxPoint x="270" y="330" />
            </Array>
            <mxPoint x="-30" y="-30" as="offset" />
          </mxGeometry>
        </mxCell>
        <mxCell id="RchGukf3e6hllIF8ddFh-25" value="/data/&amp;lt;dump-name&amp;gt;/**" style="endArrow=none;html=1;rounded=0;exitX=0.5;exitY=1;exitDx=0;exitDy=0;entryX=0.5;entryY=0;entryDx=0;entryDy=0;entryPerimeter=0;" edge="1" parent="1" source="RchGukf3e6hllIF8ddFh-1" target="RchGukf3e6hllIF8ddFh-2">
          <mxGeometry width="50" height="50" relative="1" as="geometry">
            <mxPoint x="440" y="580" as="sourcePoint" />
            <mxPoint x="490" y="530" as="targetPoint" />
          </mxGeometry>
        </mxCell>
        <mxCell id="RchGukf3e6hllIF8ddFh-26" value="FSCrawler [Pod]" style="rounded=0;whiteSpace=wrap;html=1;verticalAlign=bottom;align=right;fillColor=#dae8fc;strokeColor=#6c8ebf;" vertex="1" parent="1">
          <mxGeometry x="602.5" y="420" width="120" height="50" as="geometry" />
        </mxCell>
        <mxCell id="RchGukf3e6hllIF8ddFh-27" value="FSCrawler [Pod]" style="rounded=0;whiteSpace=wrap;html=1;verticalAlign=bottom;align=right;fillColor=#dae8fc;strokeColor=#6c8ebf;" vertex="1" parent="1">
          <mxGeometry x="612.5" y="430" width="120" height="50" as="geometry" />
        </mxCell>
        <mxCell id="RchGukf3e6hllIF8ddFh-32" value="Elastic Search" style="rounded=0;whiteSpace=wrap;html=1;verticalAlign=bottom;align=right;fillColor=#dae8fc;strokeColor=#6c8ebf;" vertex="1" parent="1">
          <mxGeometry x="602.5" y="530" width="120" height="50" as="geometry" />
        </mxCell>
        <mxCell id="RchGukf3e6hllIF8ddFh-33" value="500GB SSD" style="shape=cylinder3;whiteSpace=wrap;html=1;boundedLbl=1;backgroundOutline=1;size=7;fillColor=#fff2cc;strokeColor=#d6b656;" vertex="1" parent="1">
          <mxGeometry x="642.5" y="590" width="60" height="80" as="geometry" />
        </mxCell>
        <mxCell id="RchGukf3e6hllIF8ddFh-6" value="" style="endArrow=none;dashed=1;html=1;dashPattern=1 3;strokeWidth=2;rounded=0;exitX=0.5;exitY=1;exitDx=0;exitDy=0;exitPerimeter=0;entryX=0.5;entryY=0;entryDx=0;entryDy=0;entryPerimeter=0;" edge="1" parent="1" source="RchGukf3e6hllIF8ddFh-2" target="RchGukf3e6hllIF8ddFh-4">
          <mxGeometry width="50" height="50" relative="1" as="geometry">
            <mxPoint x="350" y="640" as="sourcePoint" />
            <mxPoint x="400" y="590" as="targetPoint" />
          </mxGeometry>
        </mxCell>
        <mxCell id="RchGukf3e6hllIF8ddFh-34" value="" style="endArrow=none;dashed=1;html=1;dashPattern=1 3;strokeWidth=2;rounded=0;entryX=0;entryY=0.5;entryDx=0;entryDy=0;entryPerimeter=0;exitX=0.5;exitY=0;exitDx=0;exitDy=0;exitPerimeter=0;" edge="1" parent="1" source="RchGukf3e6hllIF8ddFh-5" target="RchGukf3e6hllIF8ddFh-33">
          <mxGeometry width="50" height="50" relative="1" as="geometry">
            <mxPoint x="460" y="750" as="sourcePoint" />
            <mxPoint x="510" y="700" as="targetPoint" />
            <Array as="points">
              <mxPoint x="575" y="630" />
            </Array>
          </mxGeometry>
        </mxCell>
        <mxCell id="RchGukf3e6hllIF8ddFh-40" value="index new document [REST] [One document file]" style="endArrow=classic;html=1;rounded=0;entryX=0;entryY=0.5;entryDx=0;entryDy=0;exitX=1;exitY=0.5;exitDx=0;exitDy=0;" edge="1" parent="1" source="RchGukf3e6hllIF8ddFh-1" target="RchGukf3e6hllIF8ddFh-26">
          <mxGeometry width="50" height="50" relative="1" as="geometry">
            <mxPoint x="460" y="480" as="sourcePoint" />
            <mxPoint x="510" y="430" as="targetPoint" />
          </mxGeometry>
        </mxCell>
        <mxCell id="RchGukf3e6hllIF8ddFh-41" value="Add document index" style="endArrow=classic;html=1;rounded=0;entryX=0.5;entryY=0;entryDx=0;entryDy=0;exitX=0.413;exitY=1;exitDx=0;exitDy=0;exitPerimeter=0;" edge="1" parent="1" source="RchGukf3e6hllIF8ddFh-27" target="RchGukf3e6hllIF8ddFh-32">
          <mxGeometry width="50" height="50" relative="1" as="geometry">
            <mxPoint x="460" y="480" as="sourcePoint" />
            <mxPoint x="510" y="430" as="targetPoint" />
          </mxGeometry>
        </mxCell>
        <mxCell id="RchGukf3e6hllIF8ddFh-42" value="Search request results" style="endArrow=classic;html=1;rounded=0;entryX=1;entryY=0.5;entryDx=0;entryDy=0;exitX=1;exitY=0.5;exitDx=0;exitDy=0;" edge="1" parent="1" source="RchGukf3e6hllIF8ddFh-32" target="RchGukf3e6hllIF8ddFh-8">
          <mxGeometry width="50" height="50" relative="1" as="geometry">
            <mxPoint x="460" y="480" as="sourcePoint" />
            <mxPoint x="510" y="430" as="targetPoint" />
            <Array as="points">
              <mxPoint x="780" y="555" />
              <mxPoint x="780" y="330" />
            </Array>
          </mxGeometry>
        </mxCell>
        <mxCell id="RchGukf3e6hllIF8ddFh-43" value="Frontend ( Web UI)" style="rounded=0;whiteSpace=wrap;html=1;fillColor=#dae8fc;strokeColor=#6c8ebf;" vertex="1" parent="1">
          <mxGeometry x="490" y="300" width="112.5" height="20" as="geometry" />
        </mxCell>
      </root>
    </mxGraphModel>
  </diagram>
</mxfile>
